<svg id="Layer_1" data-name="Layer 1" xmlns="http://www.w3.org/2000/svg" viewBox="0 0 611.55 441.66"><path d="M532.83,132h0c-1-.05-2.08-.15-3.12-.15C530.75,131.82,531.79,131.92,532.83,132Z" style="fill:none"/><path d="M530.39,150.28a14.94,14.94,0,0,0-1.53-.06A14.94,14.94,0,0,1,530.39,150.28Z" style="fill:none"/><path d="M530.39,150.28a3.62,3.62,0,0,1,2.41,1A3.62,3.62,0,0,0,530.39,150.28Z" style="fill:none"/><path d="M533.58,152.65h0a3.73,3.73,0,0,0-.78-1.34,3.62,3.62,0,0,0-2.41-1,14.94,14.94,0,0,0-1.53-.06q-223.22.08-446.44.05H77.85c.05.39.09.79.14,1.18,1,.56,1,1.11,0,1.66-.06,1-.19,1.89-.19,2.84,0,85.46,0,135.38,0,220.84,0,12.65,8.32,20.86,21,20.86H510.7c1.24,0,2.48,0,3.72,0,10.67-.34,19-8.52,19.17-18.76-.45-.2-.33-.4,0-.61.06-1.14.17-2.27.17-3.41,0-85,0-134.39,0-219.36C533.76,154.54,533.64,153.6,533.58,152.65ZM288.52,269.25q-29.25,29.16-58.39,58.4c-1.21,1.22-1.91,1.32-3.17,0q-9.09-9.3-18.39-18.38c-1.52-1.48-1.22-2.25.12-3.58,12.1-12,24.09-24.13,36.23-36.1,1.72-1.7,1.62-2.55,0-4.18-12-11.92-24-24-36-35.9-1.52-1.51-1.79-2.36-.09-4,6-5.81,11.89-11.82,17.83-17.73.59-.58,1.05-1.36,2.11-1.6.44.39.95.8,1.41,1.26q29.19,29.19,58.42,58.36C289.89,267.18,289.82,268,288.52,269.25ZM404.8,326.07c.06,2.62-.84,3.15-3.26,3.13-14.66-.1-29.32-.05-44-.05s-29.13,0-43.7.05c-2.48,0-3.5-.46-3.43-3.25.2-8.09.18-16.18,0-24.27-.06-2.61.81-3.14,3.25-3.13q43.85.12,87.68,0c2.47,0,3.51.43,3.44,3.24C404.6,309.89,404.62,318,404.8,326.07Z" style="fill:#ef941b"/><path d="M79.35,132c1-.05,2.08-.15,3.13-.15H529.71c1,0,2.08.1,3.12.15h.57a.62.62,0,0,1,.2-.16.55.55,0,0,1,.26-.05h0q0-33.45,0-66.88c0-8.05-3.24-14.37-10.4-18.42-3.7-2.09-7.72-2.44-11.88-2.44Q305.64,44,99.72,44c-13.89,0-22,8.1-22,22q0,31.14,0,62.3c0,1.17-.48,2.52.8,3.43h0Zm150-61a16.66,16.66,0,0,1,0,33.32,16.66,16.66,0,1,1,0-33.32Zm-48.7.11a16.56,16.56,0,1,1-16.57,16.43A16.61,16.61,0,0,1,180.68,71.08Zm-48.81.24a16.3,16.3,0,1,1-16.54,16.35A16.22,16.22,0,0,1,131.87,71.32Z" style="fill:#ef941b"/><path d="M532.8,151.31a3.73,3.73,0,0,1,.78,1.34h0A3.73,3.73,0,0,0,532.8,151.31Z" style="fill:#fccb03"/><path d="M533.6,131.8a.55.55,0,0,1,.26-.05h0A.55.55,0,0,0,533.6,131.8Z" style="fill:#fccb03"/><path d="M532.83,132h0Z" style="fill:#fccb03"/><path d="M78,151.44c0,.56,0,1.11,0,1.66C79,152.55,79,152,78,151.44Z" style="fill:#292b2a"/><path d="M79.35,132l-.78-.16a.66.66,0,0,1-.22.22C78.71,132.61,79,132.36,79.35,132Z" style="fill:#111224"/><path d="M78.57,131.81h0l.78.16Z" style="fill:#111224"/></svg>