<svg id="Layer_1" data-name="Layer 1" xmlns="http://www.w3.org/2000/svg" viewBox="0 0 611.55 556.54"><path d="M532.83,215.44h0c-1-.05-2.08-.14-3.12-.14C530.75,215.3,531.79,215.39,532.83,215.44Z" style="fill:#fff"/><path d="M530.39,233.76a14.94,14.94,0,0,0-1.53-.06A14.94,14.94,0,0,1,530.39,233.76Z" style="fill:#fff"/><path d="M530.39,233.76a3.62,3.62,0,0,1,2.41,1A3.62,3.62,0,0,0,530.39,233.76Z" style="fill:#fff"/><path d="M532,275.94h0a3.92,3.92,0,0,0-.65-1.41,3.62,3.62,0,0,0-2.3-1.25,13.41,13.41,0,0,0-1.51-.21Q305.34,251.46,83.19,229.73l-4.55-.46c0,.4,0,.8,0,1.2,1,.65.91,1.2-.17,1.64-.15.94-.37,1.87-.46,2.81C69.72,320,64.86,369.66,56.57,454.71c-1.23,12.6,6.26,21.57,18.91,22.81l409.92,40c1.24.12,2.47.27,3.7.36,10.65.69,19.76-6.64,20.9-16.82-.42-.24-.28-.43.06-.6.17-1.13.38-2.25.49-3.38,8.27-84.57,13.08-133.76,21.33-218.32C532,277.84,532,276.89,532,275.94ZM276.75,368.18Q244.82,394.36,213,420.63c-1.33,1.09-2,1.12-3.16-.28q-8.15-10.14-16.52-20.08c-1.37-1.62-1-2.36.47-3.56C207,385.93,220.08,375,233.32,364.3c1.88-1.52,1.85-2.37.37-4.16-10.84-13-21.54-26.18-32.37-39.23-1.36-1.65-1.55-2.52.3-4,6.57-5.2,13-10.6,19.47-15.91a4.25,4.25,0,0,1,2.26-1.38c.39.42.86.88,1.28,1.38q26.22,31.89,52.47,63.77C278.31,366.24,278.17,367,276.75,368.18ZM387,436c-.19,2.61-1.13,3.05-3.54,2.8-14.58-1.53-29.18-2.9-43.77-4.33s-29-2.88-43.5-4.2c-2.47-.22-3.44-.79-3.1-3.56,1-8,1.75-16.09,2.37-24.16.2-2.6,1.11-3,3.54-2.8q43.62,4.38,87.27,8.53c2.45.23,3.44.78,3.1,3.56C388.33,419.9,387.56,428,387,436Z" style="fill:#fff"/><path d="M79.91,215.85c1-.27,2-.58,3-.8q218.73-46.47,437.47-92.91c1-.22,2.06-.35,3.09-.51l.55-.12a.58.58,0,0,1,.17-.21.64.64,0,0,1,.24-.1h0q-7-32.72-13.92-65.42c-1.68-7.86-6.15-13.38-14-15.85-4-1.28-8.05-.79-12.12.08Q283,82.82,81.57,125.59c-13.58,2.89-19.8,12.49-16.91,26.13q6.47,30.48,13,60.94c.25,1.15.06,2.57,1.49,3.19h.8ZM214,125A16.66,16.66,0,0,1,221,157.59,16.66,16.66,0,1,1,214,125Zm-47.62,10.23a16.55,16.55,0,1,1-12.8,19.51A16.61,16.61,0,0,1,166.38,135.24Zm-47.7,10.37A16.3,16.3,0,1,1,105.9,165,16.21,16.21,0,0,1,118.68,145.61Z" style="fill:#fff"/><path d="M532.8,234.79a3.73,3.73,0,0,1,.78,1.34h0A3.73,3.73,0,0,0,532.8,234.79Z" style="fill:#fff"/><path d="M533.6,215.28a.55.55,0,0,1,.26-.06h0A.55.55,0,0,0,533.6,215.28Z" style="fill:#fff"/><path d="M532.83,215.44h0Z" style="fill:#fff"/><path d="M78,234.92c0,.55,0,1.11,0,1.66C79,236,79,235.48,78,234.92Z" style="fill:#fff"/><path d="M79.35,215.45l-.78-.17a.58.58,0,0,1-.22.22C78.71,216.09,79,215.84,79.35,215.45Z" style="fill:#fff"/><path d="M78.57,215.28h0l.78.17Z" style="fill:#fff"/></svg>