<?xml version="1.0" standalone="no"?>
<!DOCTYPE svg PUBLIC "-//W3C//DTD SVG 20010904//EN"
 "http://www.w3.org/TR/2001/REC-SVG-20010904/DTD/svg10.dtd">
<svg version="1.0" xmlns="http://www.w3.org/2000/svg"
 width="2084.000000pt" height="2084.000000pt" viewBox="0 0 2084.000000 2084.000000"
 preserveAspectRatio="xMidYMid meet">
<metadata>
Created by potrace 1.14, written by Peter Selinger 2001-2017
</metadata>
<g transform="translate(0.000000,2084.000000) scale(0.100000,-0.100000)"
fill="#000000" stroke="none">
<path d="M10455 18329 c-660 -69 -1096 -222 -1451 -510 -94 -77 -246 -237
-317 -336 -238 -332 -382 -750 -437 -1273 -33 -302 -28 -889 10 -1410 50 -666
1 -1129 -169 -1622 -71 -204 -197 -477 -286 -619 l-24 -37 -93 29 c-166 53
-377 108 -529 139 -549 113 -1098 115 -1422 6 -275 -92 -503 -295 -567 -505
-36 -115 -36 -206 -1 -381 94 -464 353 -1387 569 -2033 l90 -269 -54 -146
c-134 -358 -224 -735 -253 -1057 -21 -225 -22 -346 -6 -470 26 -209 28 -201
-67 -303 -44 -48 -101 -118 -126 -157 -192 -297 -429 -494 -720 -599 -41 -14
-115 -38 -165 -52 -173 -48 -301 -126 -424 -257 -110 -118 -179 -260 -204
-417 -15 -96 -6 -272 20 -411 50 -267 63 -514 36 -692 -17 -113 -35 -178 -81
-299 -44 -112 -64 -233 -64 -378 0 -229 65 -375 222 -505 183 -150 450 -225
993 -280 517 -52 812 -110 1168 -231 151 -51 210 -76 502 -212 237 -110 452
-173 715 -208 171 -23 515 -23 663 0 379 59 651 223 857 516 40 58 76 108 80
112 3 4 53 12 110 18 136 13 250 31 554 86 780 141 932 144 1714 39 291 -40
481 -55 679 -55 l185 0 16 -42 c70 -181 193 -376 310 -493 280 -281 649 -413
1047 -376 242 23 472 89 710 205 280 136 516 318 759 585 214 235 391 382 628
523 66 39 295 155 509 259 547 264 667 335 799 469 128 131 175 243 174 415 0
93 -5 123 -28 190 -62 180 -184 376 -337 540 -197 212 -234 290 -344 732 -68
271 -79 307 -134 417 -95 192 -200 303 -369 389 -58 29 -81 47 -78 57 73 257
116 479 137 703 15 162 6 591 -15 742 -92 646 -356 1315 -793 2008 l-80 127
28 102 c44 162 97 405 109 503 7 56 9 151 5 250 -13 311 -43 389 -212 558 -59
59 -132 123 -161 143 -77 51 -215 119 -306 149 -148 50 -211 57 -536 64 l-305
6 -65 97 c-238 354 -386 724 -446 1113 -15 95 -17 182 -15 630 5 1142 -55
1691 -244 2245 -306 892 -923 1375 -1879 1469 -125 13 -472 12 -591 0z m884
-2207 c318 -119 529 -436 573 -859 30 -286 -60 -618 -215 -798 l-32 -37 -105
25 c-120 29 -182 54 -245 97 l-45 31 44 53 c52 64 90 142 112 228 25 96 15
278 -20 381 -74 220 -160 302 -316 301 -119 0 -193 -51 -273 -185 -58 -99 -77
-173 -88 -344 -6 -82 -12 -151 -14 -153 -2 -2 -94 26 -204 63 l-199 66 -8 77
c-11 122 1 295 30 404 74 289 281 549 506 638 111 44 149 50 285 46 117 -2
139 -6 214 -34z m-2039 -148 c150 -71 300 -266 374 -488 37 -111 56 -240 56
-382 l0 -121 -37 -11 c-21 -6 -74 -34 -118 -62 -62 -39 -88 -50 -121 -50 -38
0 -42 2 -48 31 -3 17 -6 50 -6 73 0 67 -36 218 -65 276 -82 164 -179 222 -292
175 -50 -21 -71 -41 -98 -95 -108 -213 -92 -445 46 -664 54 -86 56 -92 43
-118 -22 -42 -84 -87 -149 -107 l-60 -19 -37 52 c-96 133 -190 355 -219 516
-55 304 51 720 226 895 100 100 196 136 345 132 82 -2 104 -7 160 -33z m950
-1088 c134 -29 262 -78 430 -164 268 -138 425 -206 773 -338 93 -35 196 -78
230 -96 221 -118 294 -333 187 -548 -63 -126 -192 -262 -327 -347 -40 -25
-137 -71 -216 -103 -167 -67 -331 -148 -592 -294 -283 -158 -409 -202 -625
-215 -162 -10 -281 2 -397 41 -121 40 -212 97 -379 238 -156 132 -272 217
-397 291 -170 102 -286 218 -355 358 -34 69 -37 82 -37 160 0 76 3 92 29 138
40 72 126 152 291 268 200 141 277 201 384 299 204 186 406 289 637 326 81 12
273 5 364 -14z m1680 -1356 c4 -8 15 -42 25 -75 35 -127 171 -540 252 -769 47
-131 81 -241 76 -246 -4 -4 -62 -28 -128 -54 -340 -134 -843 -377 -1255 -608
-301 -168 -456 -276 -660 -458 l-86 -78 -86 72 c-295 245 -763 534 -1278 788
-135 67 -246 122 -248 123 -2 2 17 69 41 151 82 276 155 634 173 847 6 83 8
87 28 81 80 -25 247 -132 374 -240 52 -43 131 -109 175 -146 355 -292 800
-336 1252 -123 50 23 153 79 230 125 235 140 306 177 415 215 238 84 447 205
580 337 74 74 105 89 120 58z m-5170 -1105 c770 -104 1671 -450 2535 -973 321
-195 538 -357 750 -564 l131 -126 64 80 c131 162 387 388 583 512 226 144 929
506 1242 639 578 245 1111 398 1525 436 198 19 375 22 545 12 202 -12 276 -30
425 -103 92 -45 117 -63 201 -147 90 -90 97 -100 107 -151 21 -107 25 -337 8
-440 -42 -258 -204 -824 -486 -1700 -104 -325 -256 -825 -387 -1275 l-58 -200
-76 -7 c-136 -12 -236 -61 -318 -154 -55 -63 -95 -147 -128 -274 l-28 -105
-97 -51 c-116 -62 -190 -116 -264 -192 -112 -113 -206 -273 -264 -447 l-31
-93 -157 -70 c-417 -188 -638 -244 -1687 -431 -781 -139 -768 -138 -1360 -30
-699 128 -917 211 -1584 603 -330 194 -441 256 -669 370 -107 55 -200 109
-245 145 -104 83 -208 199 -250 278 -58 111 -174 398 -375 928 -275 722 -388
1049 -546 1570 -187 621 -396 1441 -396 1557 0 156 190 318 447 384 51 13 132
28 180 33 121 13 523 5 663 -14z m7794 -3480 c-5 -112 -14 -197 -41 -377 l-6
-38 184 -89 c220 -107 337 -175 466 -273 183 -137 274 -248 314 -381 17 -55
21 -88 17 -171 -5 -134 -17 -156 -88 -156 -33 0 -50 4 -50 13 -1 6 -2 57 -3
113 -2 94 -4 105 -39 176 -28 55 -55 92 -103 137 -181 169 -607 392 -882 461
-24 6 -43 16 -43 22 0 17 241 840 257 878 12 27 23 -182 17 -315z m-8385
-1325 c225 -29 486 -195 659 -421 44 -59 260 -429 509 -874 295 -527 353 -613
701 -1032 327 -394 443 -549 574 -767 81 -135 127 -234 162 -351 29 -97 30
-335 2 -445 -104 -407 -412 -642 -919 -701 -170 -20 -421 -2 -667 47 -234 46
-390 101 -655 226 -234 112 -376 167 -571 223 -265 77 -549 126 -944 165 -462
46 -664 86 -828 166 -157 76 -221 159 -243 312 -13 90 -6 248 16 351 8 40 32
119 54 175 100 265 108 446 40 856 -42 253 -46 446 -12 555 77 243 231 357
668 496 110 34 242 96 332 155 93 62 229 200 318 324 194 269 327 407 454 473
82 43 122 56 203 66 35 5 63 9 63 10 0 0 38 -4 84 -9z m7221 -19 c5 -11 19
-66 30 -124 47 -242 132 -413 279 -557 87 -86 198 -150 302 -175 288 -68 747
102 1099 405 52 45 104 85 115 89 41 16 183 22 293 11 328 -31 517 -184 617
-500 14 -47 51 -184 80 -305 96 -393 151 -509 345 -720 166 -181 304 -415 336
-568 18 -84 9 -158 -26 -228 -71 -139 -297 -289 -709 -470 -599 -265 -985
-530 -1353 -929 -328 -355 -644 -545 -1074 -646 -109 -26 -136 -28 -314 -29
-173 0 -204 3 -280 23 -196 54 -353 145 -485 283 -233 244 -317 512 -270 864
35 269 102 546 224 928 134 418 198 762 221 1192 22 418 40 561 96 793 54 222
106 350 190 468 45 64 175 191 209 205 34 14 64 10 75 -10z m-734 -923 c-21
-94 -42 -332 -61 -668 -8 -146 -21 -305 -30 -355 -18 -111 -88 -381 -149 -577
-25 -81 -46 -149 -46 -152 0 -8 -228 -149 -346 -214 -617 -343 -1257 -500
-1881 -463 -440 27 -753 111 -1132 306 -240 124 -227 112 -479 445 -188 247
-221 296 -205 301 10 4 63 16 117 28 165 35 267 92 331 186 151 222 38 574
-313 974 l-54 61 59 -26 c252 -112 500 -181 939 -264 726 -137 711 -138 1851
71 679 123 1052 218 1302 329 103 46 103 46 97 18z"/>
<path d="M9603 14615 c-69 -46 -72 -53 -34 -87 49 -44 90 -39 184 23 42 27 77
52 77 54 0 3 -18 14 -40 25 -63 32 -125 27 -187 -15z"/>
<path d="M10273 14629 c-29 -11 -53 -25 -53 -30 0 -5 4 -9 8 -9 5 0 40 -20 78
-45 80 -52 143 -60 185 -26 l24 20 -40 41 c-42 45 -89 70 -127 69 -13 0 -47
-9 -75 -20z"/>
<path d="M11349 13984 c-212 -201 -469 -364 -774 -494 -411 -175 -647 -206
-933 -124 -169 49 -325 128 -476 241 -83 62 -265 236 -337 321 -25 29 -43 42
-61 42 -29 0 -38 -16 -38 -66 0 -52 20 -83 115 -172 259 -245 522 -403 795
-475 105 -28 129 -30 280 -31 147 0 177 3 271 26 431 108 827 305 1169 581
126 102 176 153 185 188 9 35 -16 59 -60 59 -30 0 -49 -13 -136 -96z"/>
<path d="M14470 11302 l-85 -38 -129 -322 c-72 -177 -133 -319 -137 -315 -3 5
-39 107 -79 228 -40 121 -74 223 -77 227 -3 7 -140 -47 -193 -76 -14 -7 -43
-17 -65 -21 -65 -11 -155 -65 -228 -136 l-68 -66 6 39 c4 21 4 38 1 38 -13 0
-162 -64 -173 -74 -12 -12 -90 -802 -80 -813 6 -5 156 53 170 67 5 4 20 122
33 261 13 140 29 270 35 289 33 102 169 208 256 198 34 -4 38 -1 86 64 28 38
53 65 57 61 9 -11 210 -545 210 -559 0 -5 -16 -50 -36 -100 -40 -100 -77 -145
-141 -171 -47 -19 -49 -22 -57 -120 l-6 -63 58 26 c113 50 183 107 234 189 19
30 292 673 515 1213 8 19 -16 13 -107 -26z"/>
<path d="M5970 11311 c-65 -23 -105 -64 -120 -122 -9 -34 -8 -62 5 -142 20
-122 85 -381 115 -460 82 -219 359 -454 608 -518 187 -48 302 0 333 136 7 30
10 57 8 58 -2 2 -53 21 -113 42 -82 29 -111 35 -114 26 -3 -8 -17 -28 -32 -45
-26 -29 -33 -31 -92 -30 -77 1 -150 32 -239 100 -122 93 -172 195 -233 469
-47 212 -44 253 24 288 102 53 328 -64 429 -222 29 -44 35 -48 129 -79 54 -17
101 -32 105 -32 33 0 -89 186 -185 283 -193 194 -470 304 -628 248z"/>
<path d="M7006 10669 c-54 -13 -102 -52 -116 -95 -30 -89 33 -350 117 -482
149 -236 494 -406 648 -319 60 33 78 75 71 167 -7 96 -47 245 -90 335 -57 119
-199 261 -325 325 -60 30 -172 65 -231 73 -19 3 -53 1 -74 -4z m281 -220 c40
-19 80 -49 115 -88 60 -64 84 -123 114 -276 17 -84 17 -86 -3 -113 -62 -84
-283 15 -356 159 -34 69 -67 197 -67 264 0 99 65 117 197 54z"/>
<path d="M12750 10591 c-135 -44 -253 -128 -339 -241 -93 -124 -124 -230 -125
-425 -1 -130 8 -159 60 -198 61 -45 197 -36 310 21 255 129 383 357 372 663
-4 113 -17 140 -88 177 -53 27 -114 28 -190 3z m70 -191 c11 -11 22 -31 26
-46 10 -40 -15 -234 -37 -284 -28 -63 -93 -127 -164 -161 -76 -37 -117 -37
-152 -3 -25 25 -26 27 -21 143 4 100 9 126 32 177 35 77 86 129 161 165 71 34
126 38 155 9z"/>
<path d="M8233 10574 c3 -10 24 -98 47 -194 22 -96 43 -183 46 -193 4 -11 -23
5 -65 41 -115 96 -250 150 -349 139 -37 -4 -53 -12 -79 -41 -27 -30 -33 -44
-33 -82 0 -97 68 -370 118 -473 54 -112 216 -247 348 -291 65 -22 166 -25 206
-6 19 8 21 5 32 -45 5 -23 18 -31 97 -58 50 -18 94 -31 98 -29 9 4 -263 1167
-276 1177 -4 4 -44 20 -88 36 -44 16 -86 30 -94 33 -9 4 -12 -1 -8 -14z m-38
-438 c112 -51 170 -132 210 -293 42 -166 30 -223 -45 -223 -96 0 -212 74 -262
167 -36 66 -79 216 -81 285 -2 78 20 103 82 94 24 -3 68 -17 96 -30z"/>
<path d="M12024 10523 l-82 -35 -6 -51 c-3 -29 -9 -85 -12 -125 l-7 -73 -39
-16 c-48 -19 -58 -37 -58 -102 l0 -51 37 15 c20 8 38 13 41 10 3 -2 -6 -121
-19 -264 -22 -245 -22 -262 -7 -295 31 -63 105 -67 231 -12 49 22 57 29 57 53
0 16 3 52 6 81 l7 52 -44 -20 c-50 -22 -76 -25 -81 -9 -4 13 38 474 45 493 3
8 32 24 65 37 55 21 61 26 66 59 3 19 6 49 6 67 l0 32 -61 -25 c-34 -14 -62
-24 -64 -22 -1 2 3 56 9 121 8 79 8 117 1 116 -5 -1 -47 -17 -91 -36z"/>
<path d="M11475 10366 c-340 -77 -609 -350 -593 -601 4 -73 24 -108 79 -140
52 -31 139 -25 295 18 185 52 227 49 240 -19 16 -85 -66 -196 -194 -262 -137
-71 -263 -98 -372 -79 l-45 7 -68 -90 c-37 -49 -67 -92 -67 -94 0 -14 115 -28
199 -24 255 13 567 192 679 391 64 112 82 254 40 328 -49 88 -151 99 -348 40
-177 -54 -245 -41 -242 45 6 151 222 294 446 294 l81 0 58 91 c32 50 55 94 52
98 -13 12 -181 10 -240 -3z"/>
<path d="M8818 10040 c-117 -22 -154 -135 -108 -330 62 -257 261 -473 522
-568 92 -33 233 -38 286 -9 17 10 32 21 32 26 0 5 -36 41 -80 81 l-80 72 -36
-12 c-89 -30 -231 20 -327 114 -51 51 -115 158 -98 164 5 1 138 -42 296 -97
159 -56 290 -99 291 -98 7 7 -41 187 -62 236 -33 73 -103 169 -166 226 -105
96 -256 178 -350 190 -23 4 -52 8 -63 9 -11 2 -36 0 -57 -4z m265 -205 c68
-34 148 -114 177 -176 13 -27 21 -51 18 -54 -8 -8 -381 123 -390 138 -16 22
-1 91 24 110 30 25 99 18 171 -18z"/>
</g>
</svg>
